<?xml version="1.0" encoding="UTF-8" standalone="no"?>
<svg
   xmlns:dc="http://purl.org/dc/elements/1.1/"
   xmlns:cc="http://creativecommons.org/ns#"
   xmlns:rdf="http://www.w3.org/1999/02/22-rdf-syntax-ns#"
   xmlns:svg="http://www.w3.org/2000/svg"
   xmlns="http://www.w3.org/2000/svg"
   height="38"
   width="38"
   viewBox="0 0 38 38"
   xml:space="preserve"
   version="1.1"
   id="svg3199"><metadata
     id="metadata3205"><rdf:RDF><cc:Work
         rdf:about=""><dc:format>image/svg+xml</dc:format><dc:type
           rdf:resource="http://purl.org/dc/dcmitype/StillImage" /><dc:title></dc:title></cc:Work></rdf:RDF></metadata><defs
     id="defs3203" /><path
     style="fill:#171617;stroke-width:0.3320629"
     d="M 11.588025,34.32052 29.616565,16.284469 31.606293,7.1576414 38,0.76252102 37.490477,0.25299617 31.096769,6.6481164 21.452903,8.1161096 3.4243649,26.151689 7.1018116,29.831017 3.9180214,33.01481 1.7015235,30.797841 C 1.1243769,30.220693 0.51923847,29.881918 0.12325821,30.278836 c -0.39644661,0.39645 0.24063678,0.703745 0.81762657,1.281053 l 5.24481382,5.246223 c 0.5771489,0.577149 0.8838881,1.214318 1.2798683,0.817401 0.39661,-0.39661 0.057595,-1.00198 -0.5192299,-1.579446 L 4.7293705,33.826629 7.9127095,30.642538 Z M 4.948302,26.336658 22.082411,9.1945631 l 8.305013,-1.2881333 -1.849315,7.7475922 -2.513341,2.514748 -2.979661,-2.981069 -0.562354,0.562355 2.979661,2.981069 -1.68683,1.687769 -1.489832,-1.490769 -0.56212,0.562592 1.489831,1.490768 -2.249425,2.25036 -2.979425,-2.981305 -0.562357,0.562355 2.979662,2.981541 -1.68683,1.68777 -1.489832,-1.490771 -0.562354,0.562356 1.490065,1.491006 -2.249186,2.250124 -2.979662,-2.981069 -0.562355,0.562355 2.979896,2.981305 -3.936722,3.938131 z"
     id="path3197" /></svg>