<svg xmlns="http://www.w3.org/2000/svg" height="38" width="38" id="Layer_1" data-name="Layer 1" viewBox="0 0 48 48" version="1.1"><defs id="defs2169"><style id="style2167">.cls-1{fill:none;stroke:#000;stroke-linecap:round;stroke-linejoin:round;stroke-width:2px}</style></defs><path class="cls-1" d="M37.16 5H38a3.32 3.32 0 0 1 3.36 2.93l1.2 4.56a8.75 8.75 0 0 1 .13 4.51 9.74 9.74 0 0 1-9.5 7h-4.38a9.74 9.74 0 0 1-9.5-7 8.75 8.75 0 0 1 .08-4.49l1.2-4.56A3.32 3.32 0 0 1 24 5h0" id="path2171" style="stroke-width:.94488189;stroke-miterlimit:4;stroke-dasharray:none"/><circle class="cls-1" cx="8" cy="19" r="3" id="circle2173" style="stroke-width:.94488189;stroke-miterlimit:4;stroke-dasharray:none"/><path class="cls-1" d="M37 4v2M25 4v2M8 22v10.5A11.5 11.5 0 0 0 19.5 44h0A11.5 11.5 0 0 0 31 32.5V24" id="path2175" style="stroke-width:.94488189;stroke-miterlimit:4;stroke-dasharray:none"/><path class="cls-1" d="M-224-156h700v700h-700z" id="path2177"/></svg>