<svg xmlns="http://www.w3.org/2000/svg" height="38" width="38" viewBox="0 0 56 56" style="enable-background:new 0 0 56 56" xml:space="preserve"><path d="M18 17.513c2.206 0 4 1.794 4 4s-1.794 4-4 4-4-1.794-4-4 1.794-4 4-4zm20 0c2.206 0 4 1.794 4 4s-1.794 4-4 4-4-1.794-4-4 1.794-4 4-4zM46 26v13c0 1.654-1.346 3-3 3v-8.867c0-2.757-5-5-5-5-.554.274-.774.743-1 1v6h-5a1 1 0 0 0-1 1V37h-6v-.867a1 1 0 0 0-1-1h-5v-6c0-.552-1-1-1-1s-5 2.243-5 5V42c-1.654 0-3-1.346-3-3V26H8v13a5.003 5.003 0 0 0 3 4.576V56h2V44h5v11a1 1 0 0 0 1 1h2V39h14v17h2a1 1 0 0 0 1-1V44h5v12h2V43.576A5.003 5.003 0 0 0 48 39V26zM19 11.384v3c0 .961 1.223 1.369 1.8.6l2.7-3.6H31c1.654 0 3-1.346 3-3v-4c0-1.654-1.346-3-3-3H19c-1.654 0-3 1.346-3 3v4c0 1.654 1.346 3 3 3z" style="fill:none;stroke:#000"/></svg>