<?xml version="1.0" encoding="UTF-8" standalone="no"?>
<svg
   xmlns:dc="http://purl.org/dc/elements/1.1/"
   xmlns:cc="http://creativecommons.org/ns#"
   xmlns:rdf="http://www.w3.org/1999/02/22-rdf-syntax-ns#"
   xmlns:svg="http://www.w3.org/2000/svg"
   xmlns="http://www.w3.org/2000/svg"
   id="svg1876"
   version="1.1"
   viewBox="0 0 38 38"
   height="38"
   width="38">
  <metadata
     id="metadata1882">
    <rdf:RDF>
      <cc:Work
         rdf:about="">
        <dc:format>image/svg+xml</dc:format>
        <dc:type
           rdf:resource="http://purl.org/dc/dcmitype/StillImage" />
        <dc:title></dc:title>
      </cc:Work>
    </rdf:RDF>
  </metadata>
  <defs
     id="defs1880" />
  <g
     transform="translate(-2.4067137e-7,0.10947741)"
     id="g3119">
    <line
       style="fill:none;stroke:#000000;stroke-width:0.86443907;stroke-linecap:round;stroke-linejoin:round;stroke-miterlimit:4;stroke-dasharray:none"
       id="line1866"
       y2="4.752459"
       x2="19"
       y1="2.2759724"
       x1="19" />
    <line
       style="fill:none;stroke:#000000;stroke-width:0.86443907;stroke-linecap:round;stroke-linejoin:round;stroke-miterlimit:4;stroke-dasharray:none"
       id="line1868"
       y2="3.5142157"
       x2="20.325792"
       y1="3.5142157"
       x1="17.674208" />
    <path
       style="fill:none;fill-opacity:1;stroke:#000000;stroke-width:0.86443907;stroke-linejoin:round;stroke-miterlimit:4;stroke-dasharray:none;stroke-opacity:1"
       d="m 24.186927,17.47251 1.651839,0.940278 c 0.09614,0.004 1.159501,-3.768512 1.16506,-5.729319 0.0073,-2.558143 -0.942927,-4.8080565 -3.429604,-5.6838722 -2.428728,-0.8554061 -5.868181,-1.0353674 -9.148647,0 -2.548458,0.8043338 -3.436097,3.3527712 -3.429405,5.6829842 0.0055,1.918604 1.098431,5.721796 1.164861,5.730207 0.169852,0.182926 1.650253,-0.939375 1.650253,-0.939375 0,0 1.894502,3.143444 5.137789,3.076855 2.880688,-0.05914 4.41707,-1.226496 5.237854,-3.077758 0.617561,-1.392893 0.764305,-2.946582 0.919153,-4.457594 0.02429,-0.237034 -0.04596,-0.798557 -0.04596,-0.798557 0,0 -3.775923,-0.502178 -6.108723,-0.543964 -2.042958,-0.03659 -6.108533,0.543964 -6.108533,0.543964 0,0 -0.03181,0.534214 -0.04649,0.773513 -0.09284,1.5133 0.759264,4.4445 1.014915,4.483541"
       id="path3052" />
    <path
       style="fill:none;fill-opacity:1;stroke:#000000;stroke-width:0.86443907;stroke-linejoin:round;stroke-miterlimit:4;stroke-dasharray:none;stroke-opacity:1"
       d="M 14.676248,6.958682 13.476759,1.626291 c 2.671349,-1.88022232 9.474983,-1.32427175 11.046483,0 l -1.455651,5.332391"
       id="path3054" />
    <path
       style="fill:none;fill-opacity:1;stroke:#000000;stroke-width:0.86443907;stroke-linejoin:round;stroke-miterlimit:4;stroke-dasharray:none;stroke-opacity:1"
       d="m 9.1525492,31.109585 c 0.020624,0.801681 -0.030723,1.604482 0,2.40584 0.085414,2.227846 1.5312078,3.786353 3.3311238,3.825913 4.155588,0.09134 9.309072,-0.10864 13.030977,0 1.789268,0.05223 3.176414,-1.499674 3.326804,-3.825913 0.05174,-0.800275 -0.04707,-1.605275 0,-2.40584 0.263206,-4.476268 -4.294977,-9.630814 -5.334423,-9.244708 l -4.507996,7.694266 -4.507742,-7.689691 C 14.143732,21.346785 9.0085552,25.51241 9.1525492,31.109585 Z"
       id="path3056" />
  </g>
</svg>
