<?xml version="1.0" encoding="UTF-8" standalone="no"?>
<!-- Created with Inkscape (http://www.inkscape.org/) -->

<svg
   version="1.1"
   id="svg2"
   width="546.1333"
   height="546.1333"
   viewBox="0 0 546.1333 546.1333"
   xmlns="http://www.w3.org/2000/svg"
   xmlns:svg="http://www.w3.org/2000/svg">
  <defs
     id="defs6" />
  <g
     id="g8">
    <path
       style="fill:#ffffff;stroke-width:1"
       d="m 120.58147,546.13326 c -20.06018,-4.32516 -32.62673,-11.09412 -46.432159,-25.01062 -7.29161,-7.35026 -10.69352,-11.78319 -14.00005,-18.24298 -9.04516,-17.67105 -11.03803,-27.78152 -11.02419,-55.92923 0.028,-56.84544 13.05167,-107.94336 35.285399,-138.44073 19.86621,-27.24991 45.07966,-40.97618 78.30433,-42.62913 l 11.73333,-0.58374 6.93333,3.64534 c 3.81334,2.00494 12.63827,7.36775 19.61096,11.91735 19.20931,12.53384 31.94174,18.36845 50.78904,23.27399 13.20286,3.43641 37.16066,3.41788 50.44115,-0.039 17.73533,-4.61649 31.10003,-10.7329 50.26216,-23.0027 24.88319,-15.93306 25.02913,-15.98918 39.51759,-15.19524 45.28317,2.48144 76.96692,28.54029 96.67868,79.51504 4.28459,11.07999 10.07168,34.98423 12.6861,52.40141 2.97063,19.79018 4.55839,52.94723 3.21672,67.17444 -2.446,25.9376 -11.67398,45.12013 -29.33575,60.98129 -9.27624,8.33054 -20.21991,14.11569 -35.73333,18.88971 l -9.06666,2.79014 -150.39999,0.21976 c -142.28837,0.20794 -150.889,0.11436 -159.46666,-1.73506 z m 308.6128,-32.86192 c 24.64622,-6.92497 39.47795,-24.18345 42.31248,-49.23564 0.51561,-4.55709 0.50108,-17.17184 -0.0333,-28.88937 -2.88562,-63.27516 -20.66836,-108.79951 -49.55869,-126.87173 -6.42903,-4.02166 -19.1175,-8.17795 -28.0516,-9.18874 l -6.53583,-0.73944 -15.77295,10.12649 c -18.91371,12.14291 -29.36522,17.51425 -43.97203,22.59855 -32.11993,11.18021 -62.56642,11.85547 -94.74631,2.1013 -16.71213,-5.06567 -30.82026,-11.94614 -49.8546,-24.31386 l -15.99999,-10.39614 -6.90715,0.6628 c -8.80988,0.84539 -21.24001,5.01242 -28.98345,9.71631 -24.46285,14.8604 -42.2782,55.55238 -47.82539,109.2378 -1.71137,16.56261 -1.3688,47.12621 0.614,54.77937 6.34628,24.49513 25.35461,39.76172 52.62417,42.26524 5.02947,0.46174 71.06448,0.76136 146.74448,0.66583 L 420.8481,515.6164 Z M 251.78146,263.96465 c -28.53878,-4.86222 -51.13921,-16.56442 -71.70018,-37.12539 -19.7801,-19.7801 -31.96443,-43.18076 -36.69851,-70.48151 -2.34203,-13.50609 -1.5758,-40.16506 1.53707,-53.47805 2.94274,-12.585477 8.32836,-26.172826 14.27826,-36.022555 18.63923,-30.856233 49.74255,-54.037161 82.82657,-61.7296344 13.1621,-3.060364 41.00472,-3.875192 54.16819,-1.585258 27.49759,4.7835171 51.47315,17.3518724 71.13776,37.2915044 24.25844,24.597695 36.16403,52.008216 37.72155,86.847163 1.75834,39.33067 -10.59932,71.09711 -38.51918,99.01697 -21.229,21.229 -43.16411,32.67878 -71.36847,37.25318 -11.68786,1.89563 -32.29851,1.90208 -43.38306,0.0136 z m 39.94894,-33.10589 c 19.40662,-3.38423 38.01211,-13.473 52.39469,-28.41086 12.58898,-13.075 19.71523,-24.97378 24.61917,-41.10691 2.60963,-8.58524 2.85781,-10.95691 2.88062,-27.52797 0.0229,-16.70185 -0.20199,-18.87334 -2.84975,-27.50753 -8.27985,-27.000112 -27.45001,-49.540886 -52.77884,-62.058721 -14.35763,-7.095731 -21.81477,-8.574922 -42.8815,-8.505937 -17.25172,0.05649 -19.39435,0.284216 -28.26666,3.004253 -12.31523,3.775555 -22.05425,9.042521 -32.87284,17.777987 -15.88784,12.828623 -27.72309,30.009901 -33.40211,48.489958 -2.73312,8.89381 -2.95346,10.97312 -2.99533,28.26666 -0.0394,16.2699 0.26295,19.73377 2.35475,26.97758 5.01049,17.35109 13.98257,31.58778 28.74034,45.60448 22.99121,21.83669 52.85385,30.61284 85.05746,24.99701 z"
       id="path1115" />
  </g>
</svg>
