<?xml version="1.0" encoding="UTF-8" standalone="no"?>
<svg
   xmlns:dc="http://purl.org/dc/elements/1.1/"
   xmlns:cc="http://creativecommons.org/ns#"
   xmlns:rdf="http://www.w3.org/1999/02/22-rdf-syntax-ns#"
   xmlns:svg="http://www.w3.org/2000/svg"
   xmlns="http://www.w3.org/2000/svg"
   xmlns:sodipodi="http://sodipodi.sourceforge.net/DTD/sodipodi-0.dtd"
   xmlns:inkscape="http://www.inkscape.org/namespaces/inkscape"
   width="83.383804mm"
   height="40.121582mm"
   viewBox="0 0 83.383804 40.121582"
   version="1.1"
   xml:space="preserve"
   sodipodi:docname="logo.svg"
   inkscape:export-filename="logo.svg"
   inkscape:export-xdpi="100"
   inkscape:export-ydpi="100"
   id="svg74"
   inkscape:version="0.92.5 (2060ec1f9f, 2020-04-08)"><metadata
   id="metadata80"><rdf:RDF><cc:Work
       rdf:about=""><dc:format>image/svg+xml</dc:format><dc:type
         rdf:resource="http://purl.org/dc/dcmitype/StillImage" /></cc:Work></rdf:RDF></metadata><defs
   id="defs78" /><sodipodi:namedview
   pagecolor="#ffffff"
   bordercolor="#000000"
   borderopacity="0.25"
   objecttolerance="10"
   gridtolerance="10"
   guidetolerance="10"
   inkscape:pageopacity="0"
   inkscape:pageshadow="2"
   inkscape:window-width="1366"
   inkscape:window-height="704"
   id="namedview76"
   showgrid="false"
   inkscape:zoom="2.7447127"
   inkscape:cx="171.23833"
   inkscape:cy="75.820312"
   inkscape:window-x="0"
   inkscape:window-y="27"
   inkscape:window-maximized="1"
   inkscape:current-layer="svg74" />
   <path
   style="fill:#ffffff;stroke:none;stroke-width:0.264583px;stroke-linecap:butt;stroke-linejoin:miter;stroke-opacity:1"
   d="m 23.61287,8.9715313 2.899561,6.1967767 c -2.471911,-1.341757 -5.500433,-1.683292 -8.187698,-1.307613 -2.687265,0.375679 -4.30269,1.827343 -5.033429,5.157153 -0.730739,3.32981 -0.33079,9.510887 0.937521,12.637711 1.268311,3.126824 3.077816,3.902788 5.583934,4.278747 2.506118,0.375959 5.091865,0.329247 7.635804,0.25039 L 26.368304,28.520585 H 21.611488 V 24.1798 h 9.117549 l 7.397597,15.809723 H 14.031367 C 12.26764,39.116344 10.874672,37.62111 10.137993,35.793351 8.4043995,35.411147 6.4350757,35.407412 4.8356984,35.272971 3.2363211,35.13853 2.0844958,34.086326 3.3733405,32.848777 4.1337041,31.283386 1.3480444,29.96405 3.1558011,28.876432 1.6574434,28.412469 2.026309,27.111607 2.9418041,26.385769 2.3175477,25.226884 -0.47226046,24.883932 0.06933274,23.126774 1.9284825,22.523321 3.7447229,21.650245 5.1519572,20.05285 6.5591915,18.455455 7.0811926,16.263324 8.4484889,14.66063 9.7934058,13.084168 11.2077,11.745675 13.175431,10.623017 15.143162,9.5003591 18.38433,9.1057246 20.16575,8.9926541 c 1.78142,-0.1130705 2.298091,-0.030636 3.44712,-0.021125 z"
   id="path650"
   sodipodi:nodetypes="cczzzzsssssssszsssszazzcc" /><path
   id="path701"
   style="fill:#ffffff;stroke:none;stroke-width:0.264583px;stroke-linecap:butt;stroke-linejoin:miter;stroke-opacity:1"
   d="M 40.512912,0 36.933286,13.998629 34.721018,8.9715454 H 26.131361 L 39.780657,39.98929 h 3.51193 L 56.941884,8.9715454 H 48.321221 L 46.731654,12.583728 43.383021,0 Z m 1.030428,7.2538208 1.794723,6.7448082 h -3.519165 z m -2.023649,7.9142452 h 4.057117 l 0.805635,2.754871 -2.861324,6.501929 -2.763138,-6.279204 z" /><path
   id="path721"
   style="fill:#ffffff;stroke:none;stroke-width:0.264583px;stroke-linecap:butt;stroke-linejoin:miter;stroke-opacity:1"
   d="m 76.067331,8.9715314 c -5.535508,-0.019917 -11.071158,0.00846 -16.606738,1.4e-5 l -3.535702,7.5612956 h 9.96425 l -0.241252,4.200258 -10.021687,2e-6 -3.641122,7.787639 h 13.215214 l -0.242521,4.215426 c 0,0 -11.182726,0.0231 -16.624666,0.03444 l -3.375505,7.218681 c 9.704814,-0.01599 19.413707,0.118061 29.106649,-0.02096 4.50731,-0.06465 9.021217,-3.66827 9.297687,-8.367036 0.131218,-2.230125 -0.314035,-4.505009 -1.716733,-6.323983 -1.593675,-2.066626 -3.95414,-3.712583 -6.231996,-4.492148 -1.664037,-0.569494 -3.901942,-0.772144 -4.338763,-2.35952 -0.447829,-1.627378 1.610528,-2.734225 3.457859,-2.324884 1.847331,0.409341 3.767979,2.036148 3.767979,2.036148 l 4.061753,-4.285548 c 0,0 -0.775406,-1.10319 -1.916559,-2.279321 C 79.304326,10.395904 77.699685,9.1911062 76.067331,8.9715314 Z M 71.118796,27.03866 c 0,0 3.931951,1.232581 4.490285,2.930439 0.25959,0.789397 -0.161065,1.904718 -0.871597,2.335623 -0.525164,0.318488 -1.372178,0.360165 -2.075036,0.432542 -0.497965,0.05128 -1.501794,-0.0011 -1.501794,-0.0011 l -0.04186,-5.697506 z"
   sodipodi:nodetypes="cccccccccccssssszccsccassccc" /></svg>